<?xml version="1.0" encoding="iso-8859-1"?>
<!-- Uploaded to: SVG Repo, www.svgrepo.com, Generator: SVG Repo Mixer Tools -->
<svg version="1.1" id="Layer_1" xmlns="http://www.w3.org/2000/svg" xmlns:xlink="http://www.w3.org/1999/xlink" 
	 viewBox="0 0 512 512" xml:space="preserve">
<rect x="4" y="109.852" style="fill:#E04F5F;" width="504" height="358.496"/>
<g>
	<polygon style="fill:#C64760;" points="369.968,431.172 142.032,431.172 104.664,459.588 407.336,459.588 	"/>
	<polygon style="fill:#C64760;" points="113.32,431.172 47.632,431.172 10.256,459.588 76.072,459.588 	"/>
	<polygon style="fill:#C64760;" points="464.368,431.172 398.68,431.172 435.928,459.588 501.744,459.588 	"/>
	<polygon style="fill:#C64760;" points="369.968,147.788 142.032,147.788 104.664,119.372 407.336,119.372 	"/>
	<polygon style="fill:#C64760;" points="113.32,147.788 47.632,147.788 10.256,119.372 76.072,119.372 	"/>
	<polygon style="fill:#C64760;" points="464.368,147.788 398.68,147.788 435.928,119.372 501.744,119.372 	"/>
	<path style="fill:#C64760;" d="M504,113.852v350.496H8V113.852H504 M512,105.852H0v366.496h512V105.852L512,105.852z"/>
</g>
<path style="fill:#415E72;" d="M0,119.372V55.636c0-8.8,7.2-16,16-16h479.96c8.8,0,16,7.2,16,16v63.728H0V119.372z"/>
<polygon style="fill:#FFFFFF;" points="471.624,101.508 171.536,101.508 200.24,57.508 471.624,57.508 "/>
<g>
	<circle style="fill:#AAC1CE;" cx="53.904" cy="78.908" r="13.608"/>
	<circle style="fill:#AAC1CE;" cx="89.976" cy="78.908" r="13.608"/>
	<circle style="fill:#AAC1CE;" cx="126.056" cy="78.908" r="13.608"/>
</g>
<g>
	<path style="fill:#415E72;" d="M215.624,71.244l1.912,8.312c0.416,1.952,0.832,3.944,1.168,5.936h0.08
		c0.376-1.992,0.976-4.024,1.504-5.896l2.368-8.352h3.76l2.296,8.128c0.56,2.144,1.048,4.136,1.464,6.128h0.08
		c0.296-1.992,0.712-3.984,1.2-6.128l2.032-8.128h4.544l-5.752,18.312h-4.288l-2.176-7.448c-0.56-1.912-0.976-3.648-1.392-5.864
		h-0.08c-0.376,2.256-0.856,4.064-1.392,5.864l-2.328,7.448h-4.328l-5.416-18.312H215.624z"/>
	<path style="fill:#415E72;" d="M244.384,71.244l1.912,8.312c0.416,1.952,0.832,3.944,1.168,5.936h0.08
		c0.376-1.992,0.976-4.024,1.504-5.896l2.368-8.352h3.76l2.296,8.128c0.56,2.144,1.048,4.136,1.464,6.128h0.08
		c0.296-1.992,0.712-3.984,1.2-6.128l2.032-8.128h4.544l-5.752,18.312h-4.288l-2.176-7.448c-0.56-1.912-0.976-3.648-1.392-5.864
		h-0.08c-0.376,2.256-0.856,4.064-1.392,5.864l-2.328,7.448h-4.328l-5.416-18.312H244.384z"/>
	<path style="fill:#415E72;" d="M273.152,71.244l1.912,8.312c0.416,1.952,0.832,3.944,1.168,5.936h0.08
		c0.376-1.992,0.976-4.024,1.504-5.896l2.368-8.352h3.76l2.296,8.128c0.56,2.144,1.048,4.136,1.464,6.128h0.08
		c0.296-1.992,0.712-3.984,1.2-6.128l2.032-8.128h4.544l-5.752,18.312h-4.288l-2.176-7.448c-0.56-1.912-0.976-3.648-1.392-5.864
		h-0.08c-0.376,2.256-0.856,4.064-1.392,5.864l-2.328,7.448h-4.328l-5.416-18.312H273.152z"/>
	<path style="fill:#415E72;" d="M296.312,86.996c0-1.736,1.2-2.968,2.856-2.968c1.696,0,2.856,1.2,2.856,2.968
		c0,1.688-1.128,2.968-2.856,2.968C297.48,89.964,296.312,88.684,296.312,86.996z"/>
	<polygon style="fill:#415E72;" points="342.688,464.212 169.312,464.212 193.312,445.964 318.688,445.964 	"/>
	<rect y="459.596" style="fill:#415E72;" width="512" height="12.768"/>
	<polygon style="fill:#415E72;" points="501.744,459.588 435.928,459.588 407.336,459.588 104.664,459.588 76.072,459.588 
		10.256,459.588 0,459.588 0,472.356 512,472.356 512,459.588 	"/>
	<polygon style="fill:#415E72;" points="440.352,92.508 437.496,89.708 447.384,79.548 436.904,69.324 439.696,66.468 
		453.04,79.468 	"/>
	<rect x="421.616" y="77.508" style="fill:#415E72;" width="26.416" height="4"/>
</g>
<g>
	<path style="fill:#25B6D2;" d="M154.208,324.588H132.4l-4.2-54.6l-26.168,54.6H80.544l-10.736-85.784H90.4l5.976,57.504
		l26.744-57.504h21.08l2.904,57.504l26.576-57.504h23.264L154.208,324.588z"/>
	<path style="fill:#25B6D2;" d="M282.88,324.588h-21.808l-4.2-54.6l-26.168,54.6h-21.488l-10.736-85.784h20.592l5.976,57.504
		l26.744-57.504h21.08l2.904,57.504l26.576-57.504h23.264L282.88,324.588z"/>
	<path style="fill:#25B6D2;" d="M411.552,324.588h-21.808l-4.2-54.6l-26.168,54.6h-21.488l-10.744-85.784h20.592l5.976,57.504
		l26.744-57.504h21.08l2.904,57.504l26.576-57.504h23.264L411.552,324.588z"/>
</g>
</svg>