<svg xmlns="http://www.w3.org/2000/svg" viewBox="0 0 1920 1080"><g transform="
          rotate(0 960 540) 
          translate(-0 -0)
          scale(1)
        "><rect width="1920" height="1080" fill="rgb(125, 65, 0)"></rect><g transform="translate(0, 0)"><path fill="rgb(147, 74, 6)" fill-opacity="1" d="M0,117.648L26.667,116.692C53.333,115.736,106.667,113.824,160,113.527C213.333,113.231,266.667,114.55,320,114.698C373.333,114.847,426.667,113.824,480,101.061C533.333,88.298,586.667,63.794,640,61.725C693.333,59.656,746.667,80.02,800,73.779C853.333,67.537,906.667,34.69,960,32.827C1013.333,30.964,1066.667,60.086,1120,67.34C1173.333,74.593,1226.667,59.979,1280,46.452C1333.333,32.925,1386.667,20.485,1440,26.906C1493.333,33.328,1546.667,58.61,1600,63.168C1653.333,67.727,1706.667,51.562,1760,43.471C1813.333,35.38,1866.667,35.363,1893.333,35.355L1920,35.346L1920,1080L1893.333,1080C1866.667,1080,1813.333,1080,1760,1080C1706.667,1080,1653.333,1080,1600,1080C1546.667,1080,1493.333,1080,1440,1080C1386.667,1080,1333.333,1080,1280,1080C1226.667,1080,1173.333,1080,1120,1080C1066.667,1080,1013.333,1080,960,1080C906.667,1080,853.333,1080,800,1080C746.667,1080,693.333,1080,640,1080C586.667,1080,533.333,1080,480,1080C426.667,1080,373.333,1080,320,1080C266.667,1080,213.333,1080,160,1080C106.667,1080,53.333,1080,26.667,1080L0,1080Z"></path></g><g transform="translate(0, 120)"><path fill="rgb(168, 83, 12)" fill-opacity="1" d="M0,105.765L26.667,106.636C53.333,107.506,106.667,109.246,160,94.892C213.333,80.537,266.667,50.088,320,37.541C373.333,24.994,426.667,30.351,480,42.091C533.333,53.831,586.667,71.955,640,84.777C693.333,97.598,746.667,105.117,800,100.171C853.333,95.226,906.667,77.817,960,60.104C1013.333,42.391,1066.667,24.374,1120,14.455C1173.333,4.535,1226.667,2.714,1280,13.693C1333.333,24.672,1386.667,48.453,1440,55.927C1493.333,63.402,1546.667,54.571,1600,45.392C1653.333,36.214,1706.667,26.687,1760,24.085C1813.333,21.483,1866.667,25.804,1893.333,27.965L1920,30.126L1920,960L1893.333,960C1866.667,960,1813.333,960,1760,960C1706.667,960,1653.333,960,1600,960C1546.667,960,1493.333,960,1440,960C1386.667,960,1333.333,960,1280,960C1226.667,960,1173.333,960,1120,960C1066.667,960,1013.333,960,960,960C906.667,960,853.333,960,800,960C746.667,960,693.333,960,640,960C586.667,960,533.333,960,480,960C426.667,960,373.333,960,320,960C266.667,960,213.333,960,160,960C106.667,960,53.333,960,26.667,960L0,960Z"></path></g><g transform="translate(0, 240)"><path fill="rgb(188, 94, 17)" fill-opacity="1" d="M0,35.553L26.667,45.257C53.333,54.96,106.667,74.367,160,87.583C213.333,100.8,266.667,107.825,320,112.039C373.333,116.254,426.667,117.656,480,109.541C533.333,101.426,586.667,83.794,640,69.765C693.333,55.736,746.667,45.311,800,36.212C853.333,27.113,906.667,19.341,960,30.824C1013.333,42.308,1066.667,73.048,1120,90.722C1173.333,108.396,1226.667,113.004,1280,115.472C1333.333,117.939,1386.667,118.266,1440,111.427C1493.333,104.588,1546.667,90.584,1600,81.839C1653.333,73.094,1706.667,69.608,1760,62.486C1813.333,55.364,1866.667,44.606,1893.333,39.226L1920,33.847L1920,840L1893.333,840C1866.667,840,1813.333,840,1760,840C1706.667,840,1653.333,840,1600,840C1546.667,840,1493.333,840,1440,840C1386.667,840,1333.333,840,1280,840C1226.667,840,1173.333,840,1120,840C1066.667,840,1013.333,840,960,840C906.667,840,853.333,840,800,840C746.667,840,693.333,840,640,840C586.667,840,533.333,840,480,840C426.667,840,373.333,840,320,840C266.667,840,213.333,840,160,840C106.667,840,53.333,840,26.667,840L0,840Z"></path></g><g transform="translate(0, 360)"><path fill="rgb(205, 107, 23)" fill-opacity="1" d="M0,117.109L26.667,114.806C53.333,112.503,106.667,107.897,160,106.588C213.333,105.278,266.667,107.265,320,104.96C373.333,102.655,426.667,96.057,480,79.596C533.333,63.136,586.667,36.814,640,39.966C693.333,43.118,746.667,75.745,800,83.157C853.333,90.57,906.667,72.769,960,57.632C1013.333,42.495,1066.667,30.023,1120,29.766C1173.333,29.509,1226.667,41.467,1280,58.131C1333.333,74.795,1386.667,96.165,1440,97.446C1493.333,98.728,1546.667,79.922,1600,68.84C1653.333,57.758,1706.667,54.4,1760,45.477C1813.333,36.553,1866.667,22.064,1893.333,14.82L1920,7.576L1920,720L1893.333,720C1866.667,720,1813.333,720,1760,720C1706.667,720,1653.333,720,1600,720C1546.667,720,1493.333,720,1440,720C1386.667,720,1333.333,720,1280,720C1226.667,720,1173.333,720,1120,720C1066.667,720,1013.333,720,960,720C906.667,720,853.333,720,800,720C746.667,720,693.333,720,640,720C586.667,720,533.333,720,480,720C426.667,720,373.333,720,320,720C266.667,720,213.333,720,160,720C106.667,720,53.333,720,26.667,720L0,720Z"></path></g><g transform="translate(0, 480)"><path fill="rgb(219, 123, 27)" fill-opacity="1" d="M0,6.546L26.667,13.241C53.333,19.936,106.667,33.327,160,51.475C213.333,69.623,266.667,92.528,320,100.295C373.333,108.062,426.667,100.69,480,84.183C533.333,67.677,586.667,42.037,640,45.191C693.333,48.346,746.667,80.296,800,85.287C853.333,90.278,906.667,68.31,960,63.161C1013.333,58.012,1066.667,69.684,1120,70.403C1173.333,71.122,1226.667,60.888,1280,62.09C1333.333,63.292,1386.667,75.93,1440,82.077C1493.333,88.224,1546.667,87.881,1600,81.985C1653.333,76.089,1706.667,64.64,1760,61.336C1813.333,58.032,1866.667,62.874,1893.333,65.295L1920,67.716L1920,600L1893.333,600C1866.667,600,1813.333,600,1760,600C1706.667,600,1653.333,600,1600,600C1546.667,600,1493.333,600,1440,600C1386.667,600,1333.333,600,1280,600C1226.667,600,1173.333,600,1120,600C1066.667,600,1013.333,600,960,600C906.667,600,853.333,600,800,600C746.667,600,693.333,600,640,600C586.667,600,533.333,600,480,600C426.667,600,373.333,600,320,600C266.667,600,213.333,600,160,600C106.667,600,53.333,600,26.667,600L0,600Z"></path></g><g transform="translate(0, 600)"><path fill="rgb(231, 142, 32)" fill-opacity="1" d="M0,67.391L26.667,66.267C53.333,65.144,106.667,62.897,160,60.926C213.333,58.954,266.667,57.258,320,49.186C373.333,41.115,426.667,26.668,480,18.042C533.333,9.415,586.667,6.608,640,10.616C693.333,14.624,746.667,25.447,800,32.251C853.333,39.055,906.667,41.84,960,42.471C1013.333,43.103,1066.667,41.58,1120,45.137C1173.333,48.694,1226.667,57.331,1280,63.555C1333.333,69.778,1386.667,73.589,1440,79.554C1493.333,85.519,1546.667,93.639,1600,92.252C1653.333,90.865,1706.667,79.972,1760,68.708C1813.333,57.444,1866.667,45.81,1893.333,39.992L1920,34.175L1920,480L1893.333,480C1866.667,480,1813.333,480,1760,480C1706.667,480,1653.333,480,1600,480C1546.667,480,1493.333,480,1440,480C1386.667,480,1333.333,480,1280,480C1226.667,480,1173.333,480,1120,480C1066.667,480,1013.333,480,960,480C906.667,480,853.333,480,800,480C746.667,480,693.333,480,640,480C586.667,480,533.333,480,480,480C426.667,480,373.333,480,320,480C266.667,480,213.333,480,160,480C106.667,480,53.333,480,26.667,480L0,480Z"></path></g><g transform="translate(0, 720)"><path fill="rgb(240, 163, 36)" fill-opacity="1" d="M0,70.819L26.667,62.772C53.333,54.724,106.667,38.629,160,42.997C213.333,47.365,266.667,72.197,320,77.072C373.333,81.946,426.667,66.863,480,70.223C533.333,73.583,586.667,95.387,640,104.577C693.333,113.766,746.667,110.341,800,100.726C853.333,91.112,906.667,75.308,960,74.338C1013.333,73.368,1066.667,87.234,1120,86.095C1173.333,84.956,1226.667,68.812,1280,62.174C1333.333,55.536,1386.667,58.403,1440,52.124C1493.333,45.845,1546.667,30.42,1600,32.929C1653.333,35.439,1706.667,55.884,1760,53.411C1813.333,50.939,1866.667,25.55,1893.333,12.855L1920,0.16L1920,360L1893.333,360C1866.667,360,1813.333,360,1760,360C1706.667,360,1653.333,360,1600,360C1546.667,360,1493.333,360,1440,360C1386.667,360,1333.333,360,1280,360C1226.667,360,1173.333,360,1120,360C1066.667,360,1013.333,360,960,360C906.667,360,853.333,360,800,360C746.667,360,693.333,360,640,360C586.667,360,533.333,360,480,360C426.667,360,373.333,360,320,360C266.667,360,213.333,360,160,360C106.667,360,53.333,360,26.667,360L0,360Z"></path></g><g transform="translate(0, 840)"><path fill="rgb(248, 186, 39)" fill-opacity="1" d="M0,52.966L26.667,60.442C53.333,67.918,106.667,82.869,160,74.271C213.333,65.672,266.667,33.523,320,31.738C373.333,29.952,426.667,58.531,480,63.048C533.333,67.565,586.667,48.019,640,42.928C693.333,37.836,746.667,47.199,800,49.981C853.333,52.763,906.667,48.963,960,56.164C1013.333,63.364,1066.667,81.564,1120,75.63C1173.333,69.695,1226.667,39.627,1280,37.773C1333.333,35.919,1386.667,62.28,1440,70.895C1493.333,79.509,1546.667,70.378,1600,73.668C1653.333,76.958,1706.667,92.67,1760,92.887C1813.333,93.105,1866.667,77.829,1893.333,70.191L1920,62.553L1920,240L1893.333,240C1866.667,240,1813.333,240,1760,240C1706.667,240,1653.333,240,1600,240C1546.667,240,1493.333,240,1440,240C1386.667,240,1333.333,240,1280,240C1226.667,240,1173.333,240,1120,240C1066.667,240,1013.333,240,960,240C906.667,240,853.333,240,800,240C746.667,240,693.333,240,640,240C586.667,240,533.333,240,480,240C426.667,240,373.333,240,320,240C266.667,240,213.333,240,160,240C106.667,240,53.333,240,26.667,240L0,240Z"></path></g><g transform="translate(0, 960)"><path fill="rgb(255, 209, 43)" fill-opacity="1" d="M0,5.283L26.667,13.339C53.333,21.394,106.667,37.504,160,54.131C213.333,70.757,266.667,87.901,320,83.05C373.333,78.199,426.667,51.355,480,38.388C533.333,25.422,586.667,26.334,640,37.202C693.333,48.071,746.667,68.896,800,82.664C853.333,96.432,906.667,103.142,960,98.01C1013.333,92.879,1066.667,75.906,1120,74.645C1173.333,73.384,1226.667,87.836,1280,87.422C1333.333,87.008,1386.667,71.729,1440,70.591C1493.333,69.454,1546.667,82.458,1600,85.574C1653.333,88.689,1706.667,81.915,1760,72.581C1813.333,63.247,1866.667,51.353,1893.333,45.407L1920,39.46L1920,120L1893.333,120C1866.667,120,1813.333,120,1760,120C1706.667,120,1653.333,120,1600,120C1546.667,120,1493.333,120,1440,120C1386.667,120,1333.333,120,1280,120C1226.667,120,1173.333,120,1120,120C1066.667,120,1013.333,120,960,120C906.667,120,853.333,120,800,120C746.667,120,693.333,120,640,120C586.667,120,533.333,120,480,120C426.667,120,373.333,120,320,120C266.667,120,213.333,120,160,120C106.667,120,53.333,120,26.667,120L0,120Z"></path></g></g></svg>